# xmcd CD database file generated by Grip 2.4
# 
# Track frame offsets:
#       150
#       19000
#       47535
#       87562
#       107366
#       129436
#       142239
#       169248
#       183779
#       211499
#       237099
# 
# Disc length: 3359 seconds
# 
# Revision: 3
# Processed by: cddbd v1.4b41PL1 Copyright (c) Steve Scherf et al.
# Submitted via: Grip 2.4
# 
DISCID=900d1d0b
DTITLE=Terry Allen - Salivation
DYEAR=1900
DGENRE=
TTITLE0=Salivation
TTITLE1=The doll
TTITLE2=Billy the boy
TTITLE3=Southern comfort
TTITLE4=Rio ticino
TTITLE5=Red leg boy
TTITLE6=Cortez sail
TTITLE7=X-mas on the isthmus
TTITLE8=Ain't no top 40 song
TTITLE9=The show
TTITLE10=Give me the flowers
EXTD=
EXTT0=
EXTT1=
EXTT2=
EXTT3=
EXTT4=
EXTT5=
EXTT6=
EXTT7=
EXTT8=
EXTT9=
EXTT10=
PLAYORDER=
